<?xml version="1.0" encoding="UTF-8" standalone="no"?>
<!-- Created with Inkscape (http://www.inkscape.org/) -->

<svg
   xmlns:dc="http://purl.org/dc/elements/1.1/"
   xmlns:cc="http://creativecommons.org/ns#"
   xmlns:rdf="http://www.w3.org/1999/02/22-rdf-syntax-ns#"
   xmlns:svg="http://www.w3.org/2000/svg"
   xmlns="http://www.w3.org/2000/svg"
   xmlns:sodipodi="http://sodipodi.sourceforge.net/DTD/sodipodi-0.dtd"
   xmlns:inkscape="http://www.inkscape.org/namespaces/inkscape"
   sodipodi:docname="logo.svg"
   inkscape:version="0.91 r13725"
   version="1.1"
   id="svg2"
   viewBox="0 0 650.00001 168"
   height="168"
   width="650">
  <sodipodi:namedview
     inkscape:window-maximized="1"
     inkscape:window-y="181"
     inkscape:window-x="0"
     inkscape:window-height="787"
     inkscape:window-width="1440"
     showgrid="false"
     inkscape:current-layer="layer1"
     inkscape:document-units="px"
     inkscape:cy="245.92429"
     inkscape:cx="527.37533"
     inkscape:zoom="0.5"
     inkscape:pageshadow="2"
     inkscape:pageopacity="0.0"
     borderopacity="1.0"
     bordercolor="#666666"
     pagecolor="#ffffff"
     id="base"
     units="px" />
  <defs
     id="defs4" />
  <metadata
     id="metadata7">
    <rdf:RDF>
      <cc:Work
         rdf:about="">
        <dc:format>image/svg+xml</dc:format>
        <dc:type
           rdf:resource="http://purl.org/dc/dcmitype/StillImage" />
        <dc:title></dc:title>
      </cc:Work>
    </rdf:RDF>
  </metadata>
  <g
     id="layer1"
     inkscape:groupmode="layer"
     inkscape:label="Layer 1"
     transform="translate(0,-884.36216)">
    <g
       id="g4481"
       transform="translate(-63.7364,514.61927)">
      <path
         style="opacity:1;fill:#424242;fill-opacity:1;fill-rule:nonzero;stroke:none;stroke-width:48;stroke-miterlimit:4;stroke-dasharray:none;stroke-opacity:1"
         d="m 187.23623,393.74229 83.82496,14.85679 -0.008,89.6833 -83.81755,14.85171 5.1e-4,-119.3918"
         id="rect4144"
         inkscape:connector-curvature="0"
         sodipodi:nodetypes="ccccc" />
      <path
         style="opacity:1;fill:#757575;fill-opacity:1;fill-rule:nonzero;stroke:none;stroke-width:48;stroke-miterlimit:4;stroke-dasharray:none;stroke-opacity:1"
         d="m 91.061214,408.59918 83.824666,-14.85604 4.8e-4,119.39155 -83.818181,-14.85114 -0.007,-89.68447"
         id="rect4166"
         inkscape:connector-curvature="0"
         sodipodi:nodetypes="ccccc" />
      <path
         sodipodi:nodetypes="cccccccccccc"
         inkscape:connector-curvature="0"
         id="path4169"
         style="font-style:normal;font-weight:normal;font-size:180px;line-height:125%;font-family:sans-serif;letter-spacing:0px;word-spacing:0px;fill:none;fill-opacity:1;stroke:none;stroke-width:1px;stroke-linecap:butt;stroke-linejoin:miter;stroke-opacity:1"
         d="m 91.061343,498.16689 83.725087,14.853 0,-119.14308 -83.725087,14.83894 0,-38.7162 179.991927,0 0,38.7162 -83.74895,-14.83989 0,119.14499 83.74895,-14.85513 0,39.32052 -179.991927,0" />
      <g
         id="text4242"
         style="font-style:normal;font-weight:normal;font-size:98.34146881px;line-height:125%;font-family:sans-serif;letter-spacing:0px;word-spacing:0px;fill:#424242;fill-opacity:1;stroke:none;stroke-width:1px;stroke-linecap:butt;stroke-linejoin:miter;stroke-opacity:1">
        <path
           id="path4467"
           style="font-style:normal;font-variant:normal;font-weight:normal;font-stretch:normal;font-size:112px;font-family:'Noto Serif';-inkscape-font-specification:'Noto Serif';fill:#424242;fill-opacity:1"
           d="m 342.59131,493.83051 0,-4.70313 1.47656,0 q 1.91406,0 3.55469,-0.27344 1.69531,-0.27343 2.89844,-1.09375 1.25781,-0.875 1.96875,-2.46093 0.76562,-1.58594 0.76562,-4.21094 l 0,-26.25 -36.42187,0 0,26.25 q 0,2.625 0.71093,4.21094 0.76563,1.58593 1.96875,2.46093 1.25782,0.82032 2.95313,1.09375 1.69531,0.27344 3.55469,0.27344 l 1.47656,0 0,4.70313 -32.59375,0 0,-4.70313 1.42187,0 q 1.91407,0 3.55469,-0.27344 1.69531,-0.27343 2.95313,-1.09375 1.25781,-0.875 1.96875,-2.46093 0.71093,-1.58594 0.71093,-4.21094 l 0,-54.90625 q 0,-2.46094 -0.76562,-3.9375 -0.71094,-1.53125 -1.96875,-2.35156 -1.25781,-0.82032 -2.95313,-1.03907 -1.64062,-0.27343 -3.5,-0.27343 l -1.42187,0 0,-4.70313 32.59375,0 0,4.70313 -1.47656,0 q -1.85938,0 -3.55469,0.27343 -1.69531,0.27344 -2.95313,1.14844 -1.20312,0.82031 -1.96875,2.40625 -0.71093,1.58594 -0.71093,4.21094 l 0,22.64062 36.42187,0 0,-22.64062 q 0,-2.625 -0.76562,-4.21094 -0.71094,-1.58594 -1.96875,-2.40625 -1.20313,-0.875 -2.89844,-1.14844 -1.64063,-0.27343 -3.55469,-0.27343 l -1.47656,0 0,-4.70313 32.59375,0 0,4.70313 -1.42188,0 q -1.91406,0 -3.60937,0.27343 -1.64063,0.27344 -2.89844,1.14844 -1.25781,0.82031 -1.96875,2.40625 -0.71094,1.58594 -0.71094,4.21094 l 0,55.01562 q 0,2.46094 0.71094,3.99219 0.76563,1.47656 2.02344,2.24219 1.25781,0.76562 2.89844,1.03906 1.69531,0.21875 3.55468,0.21875 l 1.42188,0 0,4.70313 -32.59375,0 z"
           inkscape:connector-curvature="0" />
        <path
           id="path4469"
           style="font-style:normal;font-variant:normal;font-weight:normal;font-stretch:normal;font-size:112px;font-family:'Noto Serif';-inkscape-font-specification:'Noto Serif';fill:#424242;fill-opacity:1"
           d="m 383.49756,489.12738 q 1.85937,0 3.5,-0.21875 1.69531,-0.27344 2.95312,-1.03906 1.25782,-0.76563 1.96875,-2.24219 0.76563,-1.53125 0.76563,-3.99219 l 0,-35.49218 q 0,-2.46094 -0.76563,-3.9375 -0.71093,-1.53125 -1.96875,-2.35157 -1.25781,-0.82031 -2.95312,-1.09375 -1.64063,-0.27343 -3.5,-0.27343 l -0.32813,0 0,-4.70313 20.01563,0 0,47.30469 q 0,2.625 0.71094,4.21094 0.76562,1.58593 1.96875,2.46093 1.25781,0.82032 2.95312,1.09375 1.69531,0.27344 3.55469,0.27344 l 1.47656,0 0,4.70313 -31.82812,0 0,-4.70313 1.47656,0 z m 7.60156,-73.5 q 0,-1.96875 0.49219,-3.28125 0.49219,-1.3125 1.36719,-2.13281 0.875,-0.82031 2.02343,-1.14844 1.14844,-0.32812 2.51563,-0.32812 1.3125,0 2.46094,0.32812 1.14843,0.32813 1.96875,1.14844 0.875,0.82031 1.36718,2.13281 0.54688,1.3125 0.54688,3.28125 0,1.96875 -0.54688,3.28125 -0.49218,1.3125 -1.36718,2.13281 -0.82032,0.82032 -1.96875,1.20313 -1.14844,0.32812 -2.46094,0.32812 -1.36719,0 -2.51563,-0.32812 -1.14843,-0.38281 -2.02343,-1.20313 -0.875,-0.82031 -1.36719,-2.13281 -0.49219,-1.3125 -0.49219,-3.28125 z"
           inkscape:connector-curvature="0" />
        <path
           id="path4471"
           style="font-style:normal;font-variant:normal;font-weight:normal;font-stretch:normal;font-size:112px;font-family:'Noto Serif';-inkscape-font-specification:'Noto Serif';fill:#424242;fill-opacity:1"
           d="m 439.06006,494.92426 q -4.21094,0 -7.65625,-0.76563 -3.39063,-0.71094 -5.79688,-2.1875 -2.40625,-1.53125 -3.71875,-3.71875 -1.3125,-2.24219 -1.3125,-5.19531 0,-2.24219 0.71094,-3.71875 0.76563,-1.53125 1.80469,-2.40625 1.09375,-0.875 2.29687,-1.20313 1.25782,-0.38281 2.24219,-0.38281 0,2.95313 0.60156,5.52344 0.60157,2.57031 2.02344,4.53906 1.42188,1.91406 3.71875,3.0625 2.35156,1.09375 5.74219,1.09375 3.00781,0 5.30469,-0.71094 2.29687,-0.76562 3.82812,-2.07812 1.58594,-1.36719 2.40625,-3.22656 0.82031,-1.91407 0.82031,-4.15625 0,-2.07813 -0.65625,-3.55469 -0.60156,-1.53125 -2.1875,-2.84375 -1.53125,-1.3125 -4.21093,-2.67969 -2.67969,-1.36719 -6.72657,-3.11719 -4.32031,-1.91406 -7.54687,-3.66406 -3.17188,-1.80469 -5.25,-3.88281 -2.07813,-2.07813 -3.11719,-4.70313 -1.03906,-2.67968 -1.03906,-6.34375 0,-3.82812 1.47656,-6.78125 1.53125,-2.95312 4.32031,-4.92187 2.78907,-2.02344 6.67188,-3.0625 3.88281,-1.03906 8.64062,-1.03906 3.99219,0 7.05469,0.82031 3.0625,0.82031 5.14063,2.24219 2.07812,1.36718 3.11718,3.28125 1.03907,1.85937 1.03907,3.9375 0,3.0625 -2.13282,4.92187 -2.07812,1.80469 -5.96093,1.80469 0,-5.63281 -2.35157,-8.75 -2.29687,-3.11719 -7.27343,-3.11719 -2.84375,0 -4.86719,0.65625 -2.02344,0.65625 -3.33594,1.85938 -1.25781,1.20312 -1.85937,2.84375 -0.60157,1.64062 -0.60157,3.60937 0,2.13281 0.76563,3.71875 0.76562,1.53125 2.40625,2.84375 1.69531,1.3125 4.32031,2.57031 2.67969,1.20313 6.39844,2.73438 4.42969,1.85937 7.60156,3.66406 3.17188,1.80469 5.19531,3.9375 2.07813,2.13281 3.0625,4.8125 0.98438,2.67969 0.98438,6.17969 0,4.375 -1.58594,7.65625 -1.58594,3.28125 -4.48437,5.52344 -2.89844,2.1875 -7,3.28125 -4.04688,1.09375 -9.02344,1.09375 z"
           inkscape:connector-curvature="0" />
        <path
           id="path4473"
           style="font-style:normal;font-variant:normal;font-weight:normal;font-stretch:normal;font-size:112px;font-family:'Noto Serif';-inkscape-font-specification:'Noto Serif';fill:#424242;fill-opacity:1"
           d="m 495.771,489.01801 q 2.02343,0 3.71875,-0.21875 1.69531,-0.21875 3.44531,-0.54688 l 0,4.92188 q -0.71094,0.32812 -1.85938,0.65625 -1.14843,0.32812 -2.51562,0.54687 -1.3125,0.27344 -2.78906,0.38281 -1.47657,0.16407 -2.78907,0.16407 -4.26562,0 -7.32812,-0.92969 -3.0625,-0.875 -5.03125,-2.89844 -1.96875,-2.02344 -2.95313,-5.35937 -0.92968,-3.33594 -0.92968,-8.14844 l 0,-37.40625 -8.53125,0 0,-4.48438 q 2.02343,0 4.42968,-0.82031 2.46094,-0.82031 4.32032,-2.73437 1.91406,-2.07813 3.0625,-4.92188 1.20312,-2.89844 2.07812,-7.21875 l 5.14063,0 0,13.78125 14.65625,0 0,6.39844 -14.65625,0 0,37.73437 q 0,5.74219 2.29687,8.42188 2.35156,2.67969 6.23438,2.67969 z"
           inkscape:connector-curvature="0" />
        <path
           id="path4475"
           style="font-style:normal;font-variant:normal;font-weight:normal;font-stretch:normal;font-size:112px;font-family:'Noto Serif';-inkscape-font-specification:'Noto Serif';fill:#424242;fill-opacity:1"
           d="m 564.13037,463.69769 q 0,15.80469 -6.72656,23.51563 -6.67188,7.71094 -19.57813,7.71094 -6.07031,0 -10.88281,-1.91407 -4.8125,-1.91406 -8.20312,-5.79687 -3.33594,-3.88281 -5.14063,-9.73438 -1.75,-5.90625 -1.75,-13.78125 0,-15.69531 6.61719,-23.35156 6.67187,-7.65625 19.6875,-7.65625 6.07031,0 10.88281,1.91406 4.8125,1.85938 8.14844,5.74219 3.39062,3.82813 5.14062,9.67969 1.80469,5.79687 1.80469,13.67187 z m -41.45312,0 q 0,6.23438 0.82031,10.99219 0.82031,4.75781 2.625,7.98438 1.85937,3.17187 4.75781,4.8125 2.95313,1.64062 7.16406,1.64062 4.21094,0 7.10938,-1.64062 2.89844,-1.64063 4.70312,-4.8125 1.80469,-3.22657 2.57032,-7.98438 0.82031,-4.75781 0.82031,-10.99219 0,-6.23437 -0.82031,-10.9375 -0.82032,-4.70312 -2.625,-7.82031 -1.80469,-3.17187 -4.75782,-4.75781 -2.89843,-1.58594 -7.10937,-1.58594 -4.21094,0 -7.10938,1.58594 -2.89843,1.58594 -4.70312,4.75781 -1.80469,3.11719 -2.625,7.82031 -0.82031,4.70313 -0.82031,10.9375 z"
           inkscape:connector-curvature="0" />
        <path
           id="path4477"
           style="font-style:normal;font-variant:normal;font-weight:normal;font-stretch:normal;font-size:112px;font-family:'Noto Serif';-inkscape-font-specification:'Noto Serif';fill:#424242;fill-opacity:1"
           d="m 606.23975,493.83051 -32.32032,0 0,-4.70313 0.32813,0 q 1.91406,0 3.55469,-0.27344 1.69531,-0.27343 2.89843,-1.09375 1.25782,-0.875 1.96875,-2.46093 0.76563,-1.58594 0.76563,-4.21094 l 0,-34.94531 q 0,-2.46094 -0.76563,-3.9375 -0.71093,-1.53125 -1.96875,-2.35157 -1.25781,-0.82031 -2.95312,-1.09375 -1.64063,-0.27343 -3.5,-0.27343 l -0.32813,0 0,-4.70313 17.22657,0 2.13281,11.10156 0.54687,0 q 1.09375,-2.51562 2.24219,-4.70312 1.14844,-2.24219 2.78906,-3.88281 1.69532,-1.69532 4.15625,-2.625 2.46094,-0.98438 6.17969,-0.98438 6.125,0 9.07813,2.13281 3.00781,2.13282 3.00781,6.01563 0,1.75 -0.60156,3.22656 -0.54688,1.47656 -1.80469,2.57031 -1.25781,1.03907 -3.22656,1.64063 -1.96875,0.54687 -4.8125,0.54687 0,-4.64843 -1.3125,-6.67187 -1.3125,-2.07813 -4.59375,-2.07813 -2.07813,0 -3.71875,1.20313 -1.64063,1.14844 -2.89844,3.11719 -1.20313,1.91406 -2.07813,4.42968 -0.82031,2.51563 -1.36718,5.19532 -0.49219,2.625 -0.71094,5.25 -0.21875,2.625 -0.21875,4.75781 l 0,17.60937 q 0,2.46094 0.71094,3.99219 0.76562,1.47656 2.02343,2.24219 1.25782,0.76562 2.89844,1.03906 1.69531,0.21875 3.55469,0.21875 l 3.11719,0 0,4.70313 z"
           inkscape:connector-curvature="0" />
        <path
           id="path4479"
           style="font-style:normal;font-variant:normal;font-weight:normal;font-stretch:normal;font-size:112px;font-family:'Noto Serif';-inkscape-font-specification:'Noto Serif';fill:#424242;fill-opacity:1"
           d="m 686.41162,433.78363 0,4.70313 -0.32812,0 q -1.64063,0 -2.84375,0.38281 -1.14844,0.32812 -2.13282,1.3125 -0.92968,0.98437 -1.75,2.67969 -0.82031,1.69531 -1.80468,4.375 l -17.00782,47.03125 q -1.96875,5.41406 -3.71875,9.51562 -1.75,4.10156 -3.66406,7 -1.91406,2.95313 -4.21094,4.86719 -2.24218,1.91406 -5.14062,3.0625 -2.89844,1.14844 -6.67188,1.58594 -3.77343,0.4375 -8.75,0.4375 l -0.98437,0 0,-5.30469 q 5.6875,0 9.78906,-1.69531 4.10156,-1.69532 7.05469,-4.64844 3.00781,-2.95313 4.97656,-7 2.02344,-3.99219 3.39063,-8.69531 l -20.72657,-48.94532 q -0.76562,-1.75 -1.47656,-2.84375 -0.71094,-1.14843 -1.64062,-1.85937 -0.875,-0.71094 -2.07813,-0.98438 -1.14844,-0.27343 -2.78906,-0.27343 l -0.32813,0 0,-4.70313 26.90625,0 0,4.70313 -0.32812,0 q -3.39063,0 -5.08594,1.3125 -1.64062,1.3125 -1.64062,4.10156 0,0.92969 0.16406,1.91406 0.21875,0.92969 0.71094,2.1875 l 8.20312,19.96094 q 0.76563,1.91406 1.58594,4.21094 0.875,2.24218 1.58594,4.48437 0.76562,2.1875 1.36718,4.15625 0.60157,1.96875 0.82032,3.39063 l 0.32812,0 q 0.60156,-2.46094 1.64063,-5.96094 1.09375,-3.55469 2.51562,-7.60156 l 7.49219,-21.82032 q 0.49219,-1.36718 0.71094,-2.625 0.27343,-1.25781 0.27343,-2.1875 0,-2.89843 -1.85937,-4.21093 -1.80469,-1.3125 -5.52344,-1.3125 l -0.32812,0 0,-4.70313 23.29687,0 z"
           inkscape:connector-curvature="0" />
      </g>
    </g>
  </g>
</svg>
